<svg xmlns="http://www.w3.org/2000/svg" viewBox="-0.5 -0.5 15 15" stroke-width="2" style="background-color: #ffffff"><g transform="matrix(0.9,0,0,0.9,0.7024999999999997,0.7024999999999997)"><path d="M13.19,3.05a1.06,1.06,0,0,0,0-1.49L12.44.81A1.06,1.06,0,0,0,11,.81L7,4.76,3.05.81a1.06,1.06,0,0,0-1.49,0l-.75.75a1.06,1.06,0,0,0,0,1.49l4,4L.81,11a1.06,1.06,0,0,0,0,1.49l.75.75a1.06,1.06,0,0,0,1.49,0L7,9.24,11,13.19a1.06,1.06,0,0,0,1.49,0l.75-.75a1.06,1.06,0,0,0,0-1.49L9.24,7Z" fill="none" stroke="#ff0000" stroke-linecap="round" stroke-linejoin="round"></path></g></svg>