<svg xmlns="http://www.w3.org/2000/svg" fill="none" viewBox="0 0 14 14" stroke-width="1"><path stroke="#ffffff" stroke-linecap="round" stroke-linejoin="round" d="M7 13.5C10.5899 13.5 13.5 10.5899 13.5 7C13.5 3.41015 10.5899 0.5 7 0.5C3.41015 0.5 0.5 3.41015 0.5 7C0.5 10.5899 3.41015 13.5 7 13.5Z"></path><path stroke="#ffffff" stroke-linecap="round" stroke-linejoin="round" d="M3.7 8C4.2 9.8 6.2 10.9 8 10.4C9.1 10 10 9.1 10.3 8"></path><path stroke="#ffffff" stroke-linecap="round" stroke-linejoin="round" d="M4.8 5.45C4.66193 5.45 4.55 5.33807 4.55 5.2C4.55 5.06193 4.66193 4.95 4.8 4.95"></path><path stroke="#ffffff" stroke-linecap="round" stroke-linejoin="round" d="M4.8 5.45C4.93807 5.45 5.05 5.33807 5.05 5.2C5.05 5.06193 4.93807 4.95 4.8 4.95"></path><g><path stroke="#ffffff" stroke-linecap="round" stroke-linejoin="round" d="M9.2 5.45C9.06193 5.45 8.95 5.33807 8.95 5.2C8.95 5.06193 9.06193 4.95 9.2 4.95"></path><path stroke="#ffffff" stroke-linecap="round" stroke-linejoin="round" d="M9.2 5.45C9.33807 5.45 9.45 5.33807 9.45 5.2C9.45 5.06193 9.33807 4.95 9.2 4.95"></path></g></svg>