<svg xmlns="http://www.w3.org/2000/svg" viewBox="-0.5 -0.5 15 15" stroke-width="2"><g><path d="M12.29,5.4c.38.34.7.67.94.93a1,1,0,0,1,0,1.34C12.18,8.8,9.79,11,7,11H6.6" fill="none" stroke="#ffffff" stroke-linecap="round" stroke-linejoin="round"></path><path d="M3.87,10.13A12.4,12.4,0,0,1,.77,7.67a1,1,0,0,1,0-1.34C1.82,5.2,4.21,3,7,3a6.56,6.56,0,0,1,3.13.87" fill="none" stroke="#ffffff" stroke-linecap="round" stroke-linejoin="round"></path><line x1="12.5" y1="1.5" x2="1.5" y2="12.5" fill="none" stroke="#ffffff" stroke-linecap="round" stroke-linejoin="round"></line><path d="M5.59,8.41A2,2,0,0,1,5,7,2,2,0,0,1,7,5a2,2,0,0,1,1.41.59" fill="none" stroke="#ffffff" stroke-linecap="round" stroke-linejoin="round"></path><path d="M8.74,8A2,2,0,0,1,8,8.73" fill="none" stroke="#ffffff" stroke-linecap="round" stroke-linejoin="round"></path></g></svg>