<svg class="{{class_name}}" xmlns="http://www.w3.org/2000/svg" fill="none" viewBox="0 0 14 14"><path fill="#ffffff" fill-rule="evenodd" d="M4.75 0C4.33579 0 4 0.335786 4 0.75C4 1.16421 4.33579 1.5 4.75 1.5H10.75C10.8163 1.5 10.8799 1.52634 10.9268 1.57322C10.9737 1.62011 11 1.6837 11 1.75V10.75C11 11.1642 11.3358 11.5 11.75 11.5C12.1642 11.5 12.5 11.1642 12.5 10.75V1.75C12.5 1.28587 12.3156 0.840752 11.9874 0.512563C11.6592 0.184375 11.2141 0 10.75 0H4.75ZM1.93934 3.43934C2.22064 3.15804 2.60218 3 3 3H8C8.39782 3 8.77936 3.15804 9.06066 3.43934C9.34196 3.72064 9.5 4.10217 9.5 4.5V13.5C9.5 13.6953 9.38633 13.8727 9.20893 13.9543C9.03153 14.0358 8.82286 14.0067 8.6746 13.8796L5.5 11.1585L2.3254 13.8796C2.17714 14.0067 1.96847 14.0358 1.79107 13.9543C1.61367 13.8727 1.5 13.6953 1.5 13.5V4.5C1.5 4.10218 1.65804 3.72064 1.93934 3.43934Z" clip-rule="evenodd"></path></svg>