<svg xmlns="http://www.w3.org/2000/svg" fill="none" class="{{class_name}}" viewBox="0 0 14 14" height="64" width="64"><path fill="#ffffff" fill-rule="evenodd" d="M3.50498 1.4467C4.43191 0.519769 5.6891 -0.000976562 6.99998 -0.000976562C8.31086 -0.000976562 9.56806 0.519768 10.495 1.4467C11.4219 2.37363 11.9427 3.63082 11.9427 4.9417V9.35479C11.9427 9.66403 12.0655 9.96061 12.2842 10.1793C12.5323 10.4274 12.7273 10.5208 13 10.5208C13.2761 10.5208 13.5 10.7446 13.5 11.0208C13.5 11.2969 13.2761 11.5208 13 11.5208H1C0.723858 11.5208 0.5 11.2969 0.5 11.0208C0.5 10.7446 0.723858 10.5208 1 10.5208C1.2727 10.5208 1.46766 10.4274 1.71579 10.1793C1.93446 9.96061 2.0573 9.66403 2.0573 9.35479V4.9417C2.0573 3.63082 2.57805 2.37363 3.50498 1.4467ZM5.25 13.25C5.25 12.8358 5.58579 12.5 6 12.5H8C8.41421 12.5 8.75 12.8358 8.75 13.25C8.75 13.6642 8.41421 14 8 14H6C5.58579 14 5.25 13.6642 5.25 13.25Z" clip-rule="evenodd"></path></svg>