<svg class="{{class_name}}" title="{{title}}" xmlns="http://www.w3.org/2000/svg" viewBox="-0.5 -0.5 15 15" stroke-width="2"><path d="M7.49,1.09,9.08,4.3a.51.51,0,0,0,.41.3L13,5.12a.54.54,0,0,1,.3.93L10.77,8.56a.53.53,0,0,0-.16.48l.61,3.53a.55.55,0,0,1-.8.58L7.26,11.48a.59.59,0,0,0-.52,0L3.58,13.15a.55.55,0,0,1-.8-.58L3.39,9a.53.53,0,0,0-.16-.48L.67,6.05A.54.54,0,0,1,1,5.12L4.51,4.6a.51.51,0,0,0,.41-.3L6.51,1.09A.54.54,0,0,1,7.49,1.09Z" fill="none" stroke="#ffb800" stroke-linecap="round" stroke-linejoin="round"></path></svg>